<svg xmlns="http://www.w3.org/2000/svg" viewBox="0 0 1200 900" width="1200" height="900" role="img">

  <defs>
    <linearGradient id="bg-4" x1="0" y1="0" x2="1" y2="1">
      <stop offset="0%" stop-color="#231017"/><stop offset="100%" stop-color="#4a1220"/>
    </linearGradient>
  <filter id="grain-4" x="0" y="0" width="100%" height="100%">
    <feTurbulence type="fractalNoise" baseFrequency="0.9" numOctaves="3" seed="4"/>
    <feColorMatrix type="saturate" values="0"/>
    <feComponentTransfer><feFuncA type="linear" slope="0.055"/></feComponentTransfer>
  </filter>
  <radialGradient id="vig-4" cx="50%" cy="42%" r="78%">
    <stop offset="55%" stop-color="#000" stop-opacity="0"/>
    <stop offset="100%" stop-color="#000" stop-opacity="0.42"/>
  </radialGradient>
  </defs>
  <rect width="1200" height="900" fill="url(#bg-4)"/>
  <g opacity="0.5">
    <path d="M0 900 L1200 0" stroke="#ef224b" stroke-opacity="0.06" stroke-width="140"/>
    <path d="M-200 840 L1000 -60" stroke="#ef224b" stroke-opacity="0.05" stroke-width="90"/>
  </g>
  
  <g fill="#ef224b">
    <path d="M700 300 c96 0 168 76 168 172 v104 c0 92 -76 164 -168 164 h-140 c-92 0 -168 -72 -168 -164 v-70 c0 -26 22 -46 48 -46 h44 v-52 c0 -60 52 -108 116 -108 z"/>
    <path d="M392 520 c-30 0 -54 24 -54 54 v34 c0 30 24 54 54 54 h30 v-142 z"/>
  </g>
  <path d="M392 620 h476" stroke="#000" stroke-opacity="0.22" stroke-width="16"/>
  <g stroke="#ef224b" fill="none" stroke-width="4" opacity="0.18"><circle cx="600" cy="470" r="262"/></g>
  <rect width="1200" height="900" filter="url(#grain-4)" opacity="0.9"/>
   <rect width="1200" height="900" fill="url(#vig-4)"/>
  <g font-family="'Dosis','Avenir Next',sans-serif">
    <text x="80" y="804" fill="#ffffff" fill-opacity="0.94" font-size="52" font-weight="700" letter-spacing="1.5">Combat Sports</text>
    <text x="82" y="846" fill="#ef224b" fill-opacity="0.85" font-size="24" font-weight="600" letter-spacing="6">GYMINY</text>
  </g>
</svg>
