<svg xmlns="http://www.w3.org/2000/svg" viewBox="0 0 1200 900" width="1200" height="900" role="img">

  <defs>
    <linearGradient id="bg-2" x1="0" y1="0" x2="1" y2="1">
      <stop offset="0%" stop-color="#14202b"/><stop offset="100%" stop-color="#123240"/>
    </linearGradient>
  <filter id="grain-2" x="0" y="0" width="100%" height="100%">
    <feTurbulence type="fractalNoise" baseFrequency="0.9" numOctaves="3" seed="2"/>
    <feColorMatrix type="saturate" values="0"/>
    <feComponentTransfer><feFuncA type="linear" slope="0.055"/></feComponentTransfer>
  </filter>
  <radialGradient id="vig-2" cx="50%" cy="42%" r="78%">
    <stop offset="55%" stop-color="#000" stop-opacity="0"/>
    <stop offset="100%" stop-color="#000" stop-opacity="0.42"/>
  </radialGradient>
  </defs>
  <rect width="1200" height="900" fill="url(#bg-2)"/>
  <g opacity="0.5">
    <path d="M0 900 L1200 0" stroke="#7fd4e8" stroke-opacity="0.06" stroke-width="140"/>
    <path d="M-200 840 L1000 -60" stroke="#7fd4e8" stroke-opacity="0.05" stroke-width="90"/>
  </g>
  
  <g fill="none" stroke="#7fd4e8" stroke-width="26" stroke-linecap="round">
    <path d="M516 372 a84 84 0 0 1 168 0"/>
  </g>
  <path d="M600 366 c118 0 176 96 192 214 c8 62 -46 108 -108 108 h-168 c-62 0 -116 -46 -108 -108 c16 -118 74 -214 192 -214 z" fill="#7fd4e8"/>
  <ellipse cx="600" cy="560" rx="66" ry="50" fill="#000" opacity="0.22"/>
  <g stroke="#7fd4e8" fill="none" stroke-width="4" opacity="0.18">
    <circle cx="600" cy="470" r="250"/>
  </g>
  <rect width="1200" height="900" filter="url(#grain-2)" opacity="0.9"/>
   <rect width="1200" height="900" fill="url(#vig-2)"/>
  <g font-family="'Dosis','Avenir Next',sans-serif">
    <text x="80" y="804" fill="#ffffff" fill-opacity="0.94" font-size="52" font-weight="700" letter-spacing="1.5">Kettlebell Flow</text>
    <text x="82" y="846" fill="#7fd4e8" fill-opacity="0.85" font-size="24" font-weight="600" letter-spacing="6">GYMINY</text>
  </g>
</svg>
